<?xml version="1.0" encoding="utf-8"?>
<!-- Generator: Adobe Illustrator 16.0.0, SVG Export Plug-In . SVG Version: 6.00 Build 0)  -->
<!DOCTYPE svg PUBLIC "-//W3C//DTD SVG 1.1//EN" "http://www.w3.org/Graphics/SVG/1.1/DTD/svg11.dtd">
<svg version="1.1" id="Layer_1" xmlns="http://www.w3.org/2000/svg" xmlns:xlink="http://www.w3.org/1999/xlink" x="0px" y="0px"
	 width="96px" height="96px" viewBox="0 0 96 96" enable-background="new 0 0 96 96" xml:space="preserve">
<path fill="#20394E" d="M93.832,80.967c0,7.085-5.742,12.824-12.824,12.824H15.05c-7.082,0-12.824-5.739-12.824-12.824V15.012
	c0-7.082,5.742-12.825,12.824-12.825h65.958c7.082,0,12.824,5.743,12.824,12.825V80.967z"/>
<g>
	<path fill="#FFFFFF" d="M28.413,54.124c0,2.227,1.53,3.965,4.591,5.217c3.06,1.252,7.791,1.878,14.19,1.878h5.259v11.269h-9.349
		c-4.674,0-8.764-0.431-12.27-1.294c-3.506-0.862-6.427-2.017-8.765-3.464c-2.337-1.446-4.09-3.13-5.258-5.05
		c-1.169-1.92-1.753-3.937-1.753-6.052V39.35c0-2.448,0.612-4.66,1.836-6.636c1.223-1.975,2.949-3.644,5.175-5.008
		c2.225-1.363,4.896-2.406,8.013-3.13c3.116-0.723,6.594-1.085,10.434-1.085h18.78c3.115,0,6.01,0.334,8.682,1.002
		c2.67,0.667,4.967,1.6,6.887,2.796c1.918,1.197,3.422,2.671,4.506,4.424C80.457,33.465,81,35.427,81,37.597v16.527H28.413z
		 M68.313,38.804c0-2.807-3.506-4.211-10.518-4.211H39.014c-7.402,0-11.102,1.376-11.102,4.126v5.222h40.4V38.804z"/>
</g>
</svg>
